HIERARCHY
ROOT root     
{
	OFFSET 0.0000 0.0000 0.0000
	CHANNELS 6 Xposition Yposition Zposition Zrotation Yrotation Xrotation
	JOINT pelvis   
	{
		OFFSET 0.0000 0.0000 0.0000
		CHANNELS 3 Zrotation Yrotation Xrotation
		JOINT thorax   
		{
			OFFSET 0.0000 23.0750 -5.0000
			CHANNELS 3 Zrotation Yrotation Xrotation
			JOINT rclavicle
			{
				OFFSET 0.0000 28.0009 0.0000
				CHANNELS 3 Zrotation Yrotation Xrotation
				JOINT rhumerus 
				{
					OFFSET -18.5725 5.5939 0.0000
					CHANNELS 3 Zrotation Yrotation Xrotation
					JOINT rradius  
					{
						OFFSET -24.8459 0.0000 0.0000
						CHANNELS 3 Zrotation Yrotation Xrotation
						JOINT rhand    
						{
							OFFSET -24.5477 0.0000 0.0000
							CHANNELS 3 Zrotation Yrotation Xrotation
							End Site
							{
								OFFSET -8.1826 0.0000 0.0000
							}
						}
					}
				}
			}
			JOINT lclavicle
			{
				OFFSET 0.0000 28.0009 0.0000
				CHANNELS 3 Zrotation Yrotation Xrotation
				JOINT lhumerus 
				{
					OFFSET 18.5725 5.5939 0.0000
					CHANNELS 3 Zrotation Yrotation Xrotation
					JOINT lradius  
					{
						OFFSET 24.8459 0.0000 0.0000
						CHANNELS 3 Zrotation Yrotation Xrotation
						JOINT lhand    
						{
							OFFSET 24.5477 0.0000 0.0000
							CHANNELS 3 Zrotation Yrotation Xrotation
							End Site
							{
								OFFSET 8.1826 0.0000 0.0000
							}
						}
					}
				}
			}
			JOINT head     
			{
				OFFSET 0.0000 35.2030 0.0000
				CHANNELS 3 Zrotation Yrotation Xrotation
				End Site
				{
					OFFSET 0.0000 11.7343 0.0000
				}
			}
		}
		JOINT rfemur   
		{
			OFFSET -8.2817 0.0000 0.0000
			CHANNELS 3 Zrotation Yrotation Xrotation
			JOINT rtibia   
			{
				OFFSET 0.0000 -43.3627 0.0000
				CHANNELS 3 Zrotation Yrotation Xrotation
				JOINT rfoot    
				{
					OFFSET 0.0000 -38.2947 0.0000
					CHANNELS 3 Zrotation Yrotation Xrotation
					JOINT rtoes    
					{
						OFFSET 0.0000 0.0000 16.6054
						CHANNELS 3 Zrotation Yrotation Xrotation
						End Site
						{
							OFFSET 0.0000 0.0000 5.5351
						}
					}
				}
			}
		}
		JOINT lfemur   
		{
			OFFSET 8.2817 0.0000 0.0000
			CHANNELS 3 Zrotation Yrotation Xrotation
			JOINT ltibia   
			{
				OFFSET 0.0000 -43.3627 0.0000
				CHANNELS 3 Zrotation Yrotation Xrotation
				JOINT lfoot    
				{
					OFFSET 0.0000 -38.2947 0.0000
					CHANNELS 3 Zrotation Yrotation Xrotation
					JOINT ltoes    
					{
						OFFSET 0.0000 0.0000 16.6054
						CHANNELS 3 Zrotation Yrotation Xrotation
						End Site
						{
							OFFSET 0.0000 0.0000 5.5351
						}
					}
				}
			}
		}
	}
}
MOTION
Frames: 19
Frame Time: .0333333
14.834 79.413 -15.119 -167.744 32.8564 -153.86 0 -0 0 4.9997 -9.10703 19.3286 20.5499 -10.4549 -5.64571e-05 56.8315 -23.4935 3.69898 -0 73.5456 -0 -12.7697 0.681601 -0.0762981 -17.7645 10.6468 -2.38569e-05 -55.6896 -20.5938 15.6847 180 -72.2286 180 -0.920706 0.3274 -0.00260003 -1.29491 13.1871 -7.29173 13.4258 -12.9439 -57.881 -0 -0 42.0384 -2.8374e-06 -4.02398 6.03228 -0.423603 6.41713e-09 -53.8868 -2.87325 6.2277 -22.6525 -0 -0 52.3009 4.33802e-06 4.37679 -19.2119 -1.44272 1.94233e-07 -28.1849 
15.56 79.454 -15.902 -168.001 32.2818 -154.056 0 -0 0 5.2383 -9.19839 19.2678 20.581 -10.5762 -7.17608e-06 56.6825 -23.6052 3.58488 -9.44461e-07 74.1814 -1.24922e-06 -12.6444 0.798999 -0.088503 -17.822 10.7458 -5.13411e-05 -55.4625 -20.223 15.6524 180 -71.1093 -180 -1.32266 0.0961002 -0.00109995 -1.29134 13.0391 -7.66899 14.5741 -13.3778 -58.1978 -0 -0 39.8634 -6.20009e-06 -2.77384 6.59326 -0.318697 1.34645e-07 -56.8806 -2.50371 6.07227 -21.7487 -0 -0 51.9146 -1.59854e-06 3.7617 -18.5479 -1.19812 -9.25648e-06 -30.72 
16.291 79.468 -16.719 -168.296 31.7319 -154.306 0 -0 0 5.43141 -9.31081 19.2215 20.6273 -10.6858 -1.92866e-05 56.5718 -23.651 3.4149 -1.29126e-06 74.7733 -9.86732e-07 -12.4832 0.917603 -0.100401 -17.8608 10.8576 -7.82657e-05 -55.2627 -19.7319 15.5898 180 -70.0794 -180 -1.68239 -0.0954993 0.00140002 -1.30206 12.8834 -8.04153 15.6459 -13.7953 -58.4157 -0 -0 37.8521 -3.39227e-06 -1.42014 7.24732 -0.179199 9.82966e-08 -59.7345 -2.18229 5.92688 -20.798 -0 -0 51.5441 1.07397e-05 3.15078 -17.8868 -0.968601 -1.17044e-06 -33.3317 
17.026 79.451 -17.57 -168.64 31.1992 -154.616 0 -0 0 5.5748 -9.44562 19.1834 20.6899 -10.7886 3.60222e-05 56.505 -23.6412 3.18508 -1.33309e-06 75.3159 -1.02875e-06 -12.2977 1.03181 -0.111202 -17.8818 10.9853 7.12767e-06 -55.0866 -19.1355 15.5134 -180 -69.1542 180 -1.99582 -0.245098 0.00429996 -1.31973 12.7156 -8.39927 16.5948 -14.1886 -58.5345 -0 -0 36.0382 -7.44282e-10 0.00209996 8.00106 0.000299997 3.6463e-09 -62.4122 -1.91491 5.79403 -19.8033 -0 -0 51.1961 -1.24398e-05 2.52856 -17.2312 -0.749491 3.87663e-06 -35.9323 
17.765 79.402 -18.456 -169.035 30.6798 -154.984 0 -0 0 5.6711 -9.59992 19.1447 20.7681 -10.8889 3.18285e-05 56.4876 -23.5854 2.88741 -1.3742e-06 75.8129 -1.07002e-06 -12.1011 1.138 -0.1206 -17.8815 11.1167 -1.59809e-05 -54.9304 -18.4299 15.4274 180 -68.3341 -180 -2.26176 -0.352403 0.00699995 -1.33935 12.5245 -8.73243 17.3681 -14.5361 -58.5538 -0 -0 34.466 3.01261e-06 1.44485 8.82272 0.221703 -1.64462e-06 -64.6388 -1.69968 5.67915 -18.773 -0 -0 50.8765 1.5495e-05 1.88014 -16.5427 -0.5355 5.82297e-06 -38.7726 
18.505 79.319 -19.373 -169.484 30.1654 -155.403 0 -0 0 5.72469 -9.7699 19.0964 20.8623 -10.9906 -5.19397e-05 56.5225 -23.4953 2.52092 -7.8556e-07 76.2698 -1.00056e-06 -11.9077 1.23345 -0.12859 -17.8684 11.259 0.000100571 -54.7874 -17.6402 15.3498 180 -67.6419 -180 -2.47645 -0.4187 0.00910018 -1.36027 12.3068 -9.03434 17.9163 -14.8171 -58.4849 -0 -0 33.1728 1.96432e-06 2.84331 9.7069 0.479798 -2.11765e-07 -66.5124 -1.5362 5.5768 -17.7178 -0 -0 50.5933 -5.22074e-06 1.19621 -15.8477 -0.326701 3.07426e-06 -41.5205 
19.242 79.201 -20.319 -169.982 29.6531 -155.862 0 -0 0 5.74721 -9.95011 19.0238 20.9672 -11.0926 2.53986e-05 56.6129 -23.3822 2.08403 -1.1511e-06 76.6992 -1.45499e-06 -11.7351 1.31823 -0.135503 -17.8434 11.3858 2.23029e-05 -54.6515 -16.7469 15.2707 180 -67.0671 180 -2.6416 -0.448797 0.0102999 -1.38542 12.0588 -9.29855 18.1951 -15.0019 -58.3414 -0 -0 32.1967 -2.31953e-06 4.12619 10.6075 0.760809 1.50757e-06 -67.8683 -1.41641 5.48185 -16.6515 -0 -0 50.3566 -2.07438e-07 0.470107 -15.1565 -0.122901 8.87328e-07 -43.9487 
19.976 79.05 -21.289 -170.52 29.1361 -156.343 0 -0 0 5.75775 -10.1321 18.9242 21.091 -11.2044 -2.91069e-05 56.7431 -23.2478 1.57765 -0 77.1052 -0 -11.588 1.39125 -0.141197 -17.831 11.5537 -1.03067e-05 -54.508 -15.8512 15.2399 -180 -66.6535 180 -2.74942 -0.443101 0.0106002 -1.42234 11.7717 -9.53141 18.1759 -15.0649 -58.1422 -0 -0 31.5738 9.814e-06 5.2179 11.4809 1.04131 -1.08243e-06 -68.7225 -1.32709 5.39312 -15.597 -0 -0 50.1705 6.82184e-07 -0.293601 -14.3775 0.0728997 5.43531e-07 -46.9138 
20.702 78.867 -22.277 -171.087 28.6114 -156.833 0 -0 0 5.77256 -10.314 18.7841 21.2229 -11.3131 -6.58526e-05 56.9203 -23.1045 1.00441 -1.23339e-06 77.4881 -1.53706e-06 -11.4836 1.45568 -0.146396 -17.8201 11.6902 -3.32796e-05 -54.3591 -14.8647 15.2062 -180 -66.3645 180 -2.81118 -0.409999 0.0101003 -1.47879 11.4528 -9.72936 17.8514 -14.9889 -57.9169 -0 -0 31.3453 2.81529e-05 6.05855 12.2617 1.29117 1.34382e-06 -68.8918 -1.25611 5.29695 -14.5691 -0 -0 50.0482 3.64174e-06 -1.0924 -13.5784 0.256496 7.14226e-07 -49.6538 
21.42 78.657 -23.279 -171.667 28.0758 -157.317 0 -0 0 5.81052 -10.4932 18.6066 21.3629 -11.4176 -1.74737e-05 57.1292 -22.9491 0.373445 -1.80369e-06 77.8575 -2.23299e-06 -11.4242 1.51233 -0.151302 -17.8261 11.8196 -6.05704e-05 -54.2022 -13.8356 15.1893 -180 -66.2142 180 -2.82628 -0.351402 0.0087 -1.5644 11.1038 -9.90088 17.2363 -14.7709 -57.6943 -0 -0 31.5469 -1.72339e-05 6.60777 12.8792 1.47913 5.48114e-06 -68.2654 -1.18972 5.1812 -13.5837 -0 -0 49.9998 -9.38327e-06 -1.91622 -12.7525 0.423103 -3.82541e-06 -52.1869 
22.128 78.423 -24.291 -172.249 27.5233 -157.788 0 -0 0 5.88781 -10.6709 18.3948 21.5123 -11.5124 -1.42822e-05 57.3551 -22.7779 -0.305779 -9.32162e-07 78.214 -1.14674e-06 -11.4115 1.56194 -0.156097 -17.8524 11.939 2.92593e-05 -54.036 -12.773 15.1838 180 -66.1997 180 -2.79965 -0.269806 0.00659997 -1.68671 10.7301 -10.0547 16.3738 -14.4279 -57.5108 -0 -0 32.2097 8.17497e-06 6.85883 13.2553 1.57977 -2.21489e-05 -66.5558 -1.11349 5.03492 -12.651 -0 -0 50.0352 -1.45042e-05 -2.75256 -11.8953 0.567797 4.44558e-06 -54.5694 
22.826 78.17 -25.311 -172.822 26.9495 -158.247 0 -0 0 6.01547 -10.8521 18.1658 21.6723 -11.5882 -5.0804e-05 57.5881 -22.5844 -1.02272 -0 78.5454 -0 -11.4447 1.60523 -0.160904 -17.9017 12.0344 3.82314e-05 -53.8694 -11.6651 15.176 -180 -66.3144 180 -2.73938 -0.166304 0.00400009 -1.8506 10.339 -10.199 15.3281 -14.0021 -57.3887 -0 -0 33.3413 -3.28276e-05 6.83686 13.336 1.58424 3.01932e-05 -63.7828 -1.01658 4.84704 -11.7741 -0 -0 50.1594 -1.03249e-05 -3.58757 -11.0037 0.685602 6.27859e-06 -56.8175 
23.514 77.904 -26.339 -173.371 26.35 -158.696 0 -0 0 6.20131 -11.0434 17.9357 21.841 -11.638 -2.51182e-05 57.8116 -22.3553 -1.76165 -1.20643e-06 78.8602 -9.91981e-07 -11.5199 1.64036 -0.165503 -17.975 12.1044 -3.96121e-07 -53.7098 -10.5188 15.1593 -180 -66.5559 180 -2.65167 -0.0398997 0.000899984 -2.0568 9.9378 -10.3429 14.1764 -13.5479 -57.3439 -0 -0 34.9298 8.20777e-06 6.59477 13.0664 1.49725 1.91723e-05 -59.8283 -0.88991 4.60807 -10.9503 -0 -0 50.3775 -5.2339e-06 -4.40815 -10.0806 0.773108 1.14133e-06 -58.9123 
24.193 77.631 -27.374 -173.888 25.7213 -159.139 0 -0 0 6.44918 -11.2527 17.7255 22.0218 -11.6545 -8.15838e-05 58.0132 -22.0762 -2.50761 -2.99946e-06 79.1267 -3.15642e-06 -11.6306 1.66529 -0.169595 -18.0706 12.1409 -5.22839e-05 -53.5707 -9.32634 15.121 180 -66.9171 -180 -2.54463 0.111399 -0.00250003 -2.30244 9.53275 -10.4935 12.9977 -13.1267 -57.37 -0 -0 36.9239 -9.99152e-06 6.19848 12.4216 1.33833 2.184e-05 -54.7513 -0.72729 4.31318 -10.1729 -0 -0 50.691 -7.23567e-06 -5.20217 -9.12184 0.827014 1.33396e-06 -60.8723 
24.863 77.358 -28.415 -174.363 25.0594 -159.582 0 -0 0 6.76355 -11.4861 17.5513 22.2138 -11.6324 3.30495e-05 58.175 -21.733 -3.24574 -0 79.3497 -0 -11.7725 1.67522 -0.172698 -18.1896 12.1512 -3.44623e-06 -53.4624 -8.10201 15.0578 180 -67.3999 -180 -2.42235 0.292096 -0.00620008 -2.58073 9.12928 -10.656 11.8612 -12.7861 -57.4426 -0 -0 39.2265 -6.61952e-06 5.70294 11.4259 1.13339 -7.23119e-06 -48.8669 -0.522113 3.96311 -9.44338 -0 -0 51.1045 -1.10121e-06 -5.96212 -8.12576 0.845708 4.38404e-06 -62.6628 
25.524 77.091 -29.457 -174.783 24.3662 -160.019 0 -0 0 7.14908 -11.7448 17.421 22.4192 -11.568 -3.44268e-05 58.2879 -21.3093 -3.962 -1.49907e-06 79.5078 -1.80219e-06 -11.9396 1.66573 -0.174198 -18.3329 12.1303 2.66419e-05 -53.4004 -6.84708 14.9616 180 -68.0039 -180 -2.28988 0.5062 -0.0100999 -2.88197 8.72889 -10.8322 10.8227 -12.5559 -57.5304 -0 -0 41.7153 -5.09922e-07 5.14758 10.1462 0.909209 -8.6276e-06 -42.7542 -0.270108 3.56643 -8.76842 -0 -0 51.6211 -6.40552e-06 -6.68177 -7.07986 0.827309 2.49225e-06 -64.3119 
26.174 76.838 -30.497 -175.142 23.6488 -160.446 0 -0 0 7.60445 -12.025 17.3385 22.6358 -11.4609 6.28481e-05 58.3425 -20.7932 -4.64483 -0 79.5898 -0 -12.1296 1.63273 -0.173512 -18.4942 12.07 5.89847e-05 -53.3972 -5.55563 14.8195 180 -68.7295 -180 -2.15197 0.756198 -0.0142004 -3.19206 8.33086 -11.0195 9.91622 -12.4493 -57.5943 -0 -0 44.2629 3.09393e-06 4.55494 8.68204 0.688991 8.06427e-06 -37.1047 0.028001 3.13962 -8.16305 -0 -0 52.2461 8.5042e-06 -7.35479 -5.95908 0.767704 4.38015e-06 -65.9035 
26.813 76.605 -31.526 -175.432 22.9121 -160.845 0 -0 0 8.1337 -12.3175 17.2924 22.8628 -11.3133 7.37996e-05 58.3348 -20.1756 -5.28577 -1.51266e-06 79.5906 -1.81578e-06 -12.3367 1.57147 -0.169802 -18.6746 11.9844 -4.67734e-05 -53.4633 -4.25609 14.6391 180 -69.5897 -180 -2.00522 1.0468 -0.0182991 -3.49605 7.93172 -11.2129 9.16191 -12.4529 -57.6097 -0 -0 46.7424 -1.21364e-06 3.92752 7.13946 0.4889 -1.42884e-06 -32.5503 0.374704 2.70506 -7.65357 -0 -0 52.9859 -1.9288e-06 -7.97935 -4.74859 0.664798 1.60142e-06 -67.3878 
27.439 76.397 -32.537 -175.653 22.1681 -161.205 0 -0 0 8.73002 -12.609 17.272 23.1013 -11.1307 -0.000100857 58.2615 -19.4516 -5.87744 -1.06001e-06 79.5078 -1.27435e-06 -12.5599 1.47988 -0.162899 -18.8664 11.8722 9.9682e-05 -53.6089 -2.95794 14.4179 180 -70.5922 -180 -1.84757 1.37954 -0.0222002 -3.7759 7.52512 -11.4034 8.56595 -12.5511 -57.5599 -0 -0 49.0638 -5.43132e-06 3.27066 5.59829 0.319402 -8.13749e-07 -29.4419 0.764805 2.28834 -7.2636 -0 -0 53.8447 3.01672e-06 -8.5489 -3.42398 0.514399 3.80226e-06 -68.7565 
